<svg width="24" height="24" viewBox="0 0 24 24" fill="none" xmlns="http://www.w3.org/2000/svg"><path d="M2 5.99998L8.91302 9.91695C11.4616 11.361 12.5384 11.361 15.087 9.91695L22 5.99998" stroke="#F4F4F4" stroke-width="1.5" stroke-linejoin="round"/><path d="M2.01577 13.4756C2.08114 16.5411 2.11383 18.0739 3.24496 19.2093C4.37608 20.3448 5.95033 20.3843 9.09883 20.4634C11.0393 20.5122 12.9607 20.5122 14.9012 20.4634C18.0497 20.3843 19.6239 20.3448 20.7551 19.2093C21.8862 18.0739 21.9189 16.5411 21.9842 13.4756C22.0053 12.4899 22.0053 11.51 21.9842 10.5244C21.9189 7.45883 21.8862 5.92606 20.7551 4.79063C19.6239 3.6552 18.0497 3.61565 14.9012 3.53654C12.9607 3.48778 11.0393 3.48778 9.09882 3.53653C5.95033 3.61563 4.37608 3.65518 3.24495 4.79062C2.11382 5.92605 2.08114 7.45882 2.01576 10.5243C1.99474 11.51 1.99475 12.4899 2.01577 13.4756Z" stroke="#F4F4F4" stroke-width="1.5" stroke-linejoin="round"/></svg>