<svg width="18" height="18" viewBox="0 0 18 18" fill="none" xmlns="http://www.w3.org/2000/svg"><path d="M3.55528 10.7764L5.02013 9.73619C5.43334 9.44276 5.85229 9.24613 6.33025 9.11885C6.87901 8.97272 7.125 8.67327 7.125 8.03327C7.125 6.40971 10.875 6.23695 10.875 8.03327C10.875 8.67327 11.121 8.97272 11.6697 9.11885C12.1515 9.24715 12.5699 9.44509 12.9799 9.73619L14.4447 10.7764C15.1075 11.2471 15.416 11.4746 15.5881 11.8364C15.75 12.1768 15.75 12.576 15.75 13.3743C15.75 14.8096 15.75 15.5272 15.3481 15.9873C14.8614 16.5445 13.596 16.4966 12.8188 16.4966H5.18125C4.40398 16.4966 3.16432 16.5739 2.65185 15.9873C2.25 15.5272 2.25 14.8096 2.25 13.3743C2.25 12.576 2.25 12.1768 2.41188 11.8364C2.58394 11.4746 2.89247 11.2471 3.55528 10.7764Z" stroke="#F4F4F4" stroke-width="1.5"/><path d="M10.5 12.75C10.5 13.5784 9.82843 14.25 9 14.25C8.17157 14.25 7.5 13.5784 7.5 12.75C7.5 11.9216 8.17157 11.25 9 11.25C9.82843 11.25 10.5 11.9216 10.5 12.75Z" stroke="#F4F4F4" stroke-width="1.5"/><path d="M5.22011 2.77329C4.23128 3.05561 3.52038 3.40584 2.86984 3.82842C1.83989 4.49745 1.39832 5.70303 1.51955 6.86635C1.57079 7.35801 1.96548 7.5931 2.42317 7.46592C2.77089 7.36928 3.11916 7.27523 3.46471 7.17273C4.47529 6.87298 4.71299 6.50859 4.85343 5.47413L5.22011 2.77329ZM5.22011 2.77329C7.66394 2.07557 10.3361 2.07557 12.7799 2.77329M12.7799 2.77329C13.7687 3.05561 14.4796 3.40584 15.1302 3.82842C16.1601 4.49745 16.6017 5.70303 16.4804 6.86635C16.4292 7.35801 16.0345 7.5931 15.5768 7.46592C15.2291 7.36928 14.8808 7.27523 14.5353 7.17273C13.5247 6.87298 13.287 6.50859 13.1466 5.47413L12.7799 2.77329Z" stroke="#F4F4F4" stroke-width="1.5" stroke-linejoin="round"/></svg>